HIERARCHY
ROOT hip
{
  OFFSET 0 0 0
  CHANNELS 6 Xposition Yposition Zposition Zrotation Yrotation Xrotation
  JOINT abdomen
  {
    OFFSET 0 20.6881 -0.73152
    CHANNELS 3 Zrotation Xrotation Yrotation
    JOINT chest
    {
      OFFSET 0 11.7043 -0.48768
      CHANNELS 3 Zrotation Xrotation Yrotation
      JOINT neck
      {
        OFFSET 0 22.1894 -2.19456
        CHANNELS 3 Zrotation Xrotation Yrotation
        JOINT head
        {
          OFFSET -0.24384 7.07133 1.2192
          CHANNELS 3 Zrotation Xrotation Yrotation
          JOINT leftEye
          {
            OFFSET 4.14528 8.04674 8.04672
            CHANNELS 3 Zrotation Xrotation Yrotation
            End Site
            {
              OFFSET 1 0 0
            }
          }
          JOINT rightEye
          {
            OFFSET -3.6576 8.04674 8.04672
            CHANNELS 3 Zrotation Xrotation Yrotation
            End Site
            {
              OFFSET 1 0 0
            }
          }
        }
      }
      JOINT rCollar
      {
        OFFSET -2.68224 19.2634 -4.8768
        CHANNELS 3 Zrotation Xrotation Yrotation
        JOINT rShldr
        {
          OFFSET -8.77824 -1.95073 1.46304
          CHANNELS 3 Zrotation Xrotation Yrotation
          JOINT rForeArm
          {
            OFFSET -28.1742 -1.7115 0.48768
            CHANNELS 3 Zrotation Xrotation Yrotation
            JOINT rHand
            {
              OFFSET -22.5879 0.773209 7.07136
              CHANNELS 3 Zrotation Xrotation Yrotation
              JOINT rThumb1
              {
                OFFSET -1.2192 -0.487915 3.41376
                CHANNELS 3 Zrotation Xrotation Yrotation
                JOINT rThumb2
                {
                  OFFSET -3.37035 -0.52449 3.41376
                  CHANNELS 3 Zrotation Xrotation Yrotation
                  End Site
                  {
                    OFFSET -1.78271 -1.18214 1.43049
                  }
                }
              }
              JOINT rIndex1
              {
                OFFSET -7.75947 0.938293 5.60832
                CHANNELS 3 Zrotation Xrotation Yrotation
                JOINT rIndex2
                {
                  OFFSET -2.54057 -0.884171 1.56538
                  CHANNELS 3 Zrotation Xrotation Yrotation
                  End Site
                  {
                    OFFSET -1.62519 -0.234802 1.16502
                  }
                }
              }
              JOINT rMid1
              {
                OFFSET -8.24714 1.18213 3.41376
                CHANNELS 3 Zrotation Xrotation Yrotation
                JOINT rMid2
                {
                  OFFSET -3.10165 -0.590103 1.0647
                  CHANNELS 3 Zrotation Xrotation Yrotation
                  End Site
                  {
                    OFFSET -2.48547 -0.328903 0.83742
                  }
                }
              }
              JOINT rRing1
              {
                OFFSET -8.82822 0.546677 1.51678
                CHANNELS 3 Zrotation Xrotation Yrotation
                JOINT rRing2
                {
                  OFFSET -2.60934 -0.819778 -0.0198488
                  CHANNELS 3 Zrotation Xrotation Yrotation
                  End Site
                  {
                    OFFSET -2.33842 -0.294052 0.168128
                  }
                }
              }
              JOINT rPinky1
              {
                OFFSET -8.27202 -0.0477905 -0.4584
                CHANNELS 3 Zrotation Xrotation Yrotation
                JOINT rPinky2
                {
                  OFFSET -1.82734 -0.647385 -0.700984
                  CHANNELS 3 Zrotation Xrotation Yrotation
                  End Site
                  {
                    OFFSET -1.69225 -0.51767 -0.607171
                  }
                }
              }
            }
          }
        }
      }
      JOINT lCollar
      {
        OFFSET 2.68224 19.2634 -4.8768
        CHANNELS 3 Zrotation Xrotation Yrotation
        JOINT lShldr
        {
          OFFSET 8.77824 -1.95073 1.46304
          CHANNELS 3 Zrotation Xrotation Yrotation
          JOINT lForeArm
          {
            OFFSET 28.1742 -1.7115 0.48768
            CHANNELS 3 Zrotation Xrotation Yrotation
            JOINT lHand
            {
              OFFSET 22.5879 0.773209 7.07136
              CHANNELS 3 Zrotation Xrotation Yrotation
              JOINT lThumb1
              {
                OFFSET 1.2192 -0.487915 3.41376
                CHANNELS 3 Zrotation Xrotation Yrotation
                JOINT lThumb2
                {
                  OFFSET 3.37035 -0.52449 3.41376
                  CHANNELS 3 Zrotation Xrotation Yrotation
                  End Site
                  {
                    OFFSET 1.78271 -1.18214 1.43049
                  }
                }
              }
              JOINT lIndex1
              {
                OFFSET 7.75947 0.938293 5.60832
                CHANNELS 3 Zrotation Xrotation Yrotation
                JOINT lIndex2
                {
                  OFFSET 2.54057 -0.884171 1.56538
                  CHANNELS 3 Zrotation Xrotation Yrotation
                  End Site
                  {
                    OFFSET 1.62519 -0.234802 1.16502
                  }
                }
              }
              JOINT lMid1
              {
                OFFSET 8.24714 1.18213 3.41376
                CHANNELS 3 Zrotation Xrotation Yrotation
                JOINT lMid2
                {
                  OFFSET 3.10165 -0.590103 1.0647
                  CHANNELS 3 Zrotation Xrotation Yrotation
                  End Site
                  {
                    OFFSET 2.48547 -0.328903 0.83742
                  }
                }
              }
              JOINT lRing1
              {
                OFFSET 8.82822 0.546677 1.51678
                CHANNELS 3 Zrotation Xrotation Yrotation
                JOINT lRing2
                {
                  OFFSET 2.60934 -0.819778 -0.0198488
                  CHANNELS 3 Zrotation Xrotation Yrotation
                  End Site
                  {
                    OFFSET 2.33842 -0.294052 0.168128
                  }
                }
              }
              JOINT lPinky1
              {
                OFFSET 8.27202 -0.0477905 -0.4584
                CHANNELS 3 Zrotation Xrotation Yrotation
                JOINT lPinky2
                {
                  OFFSET 1.82734 -0.647385 -0.700984
                  CHANNELS 3 Zrotation Xrotation Yrotation
                  End Site
                  {
                    OFFSET 1.69225 -0.51767 -0.607171
                  }
                }
              }
            }
          }
        }
      }
    }
  }
  JOINT rButtock
  {
    OFFSET -8.77824 4.35084 1.2192
    CHANNELS 3 Zrotation Xrotation Yrotation
    JOINT rThigh
    {
      OFFSET 0 -1.70687 -2.19456
      CHANNELS 3 Zrotation Xrotation Yrotation
      JOINT rShin
      {
        OFFSET 0 -36.8199 0.73152
        CHANNELS 3 Zrotation Xrotation Yrotation
        JOINT rFoot
        {
          OFFSET 0.73152 -45.1104 -5.12064
          CHANNELS 3 Zrotation Xrotation Yrotation
          End Site
          {
            OFFSET -1.1221 -3.69964 12.103
          }
        }
      }
    }
  }
  JOINT lButtock
  {
    OFFSET 8.77824 4.35084 1.2192
    CHANNELS 3 Zrotation Xrotation Yrotation
    JOINT lThigh
    {
      OFFSET 0 -1.70687 -2.19456
      CHANNELS 3 Zrotation Xrotation Yrotation
      JOINT lShin
      {
        OFFSET 0 -36.8199 0.73152
        CHANNELS 3 Zrotation Xrotation Yrotation
        JOINT lFoot
        {
          OFFSET -0.73152 -45.1104 -5.12064
          CHANNELS 3 Zrotation Xrotation Yrotation
          End Site
          {
            OFFSET 1.1221 -3.69964 12.103
          }
        }
      }
    }
  }
}
MOTION
Frames:	9
Frame Time:	0.00833333
-191.411 78.8592 5.46278 0.0 0.0 0.0 1.9299 -0.00172171 0.0523829 0.532085 0.00507134 0.0921231 -2.25816e-14 1.59028e-15 -1.49089e-16 -6.71209e-14 9.54166e-15 -3.02836e-16 -0.0 0.0 0.0 -0.0 0.0 0.0 -1.09839e-14 1.13564e-16 4.96962e-17 -2.32319e-13 2.34193e-15 -5.96354e-16 -4.0235e-12 1.28952e-12 9.54166e-15 -4.6125e-11 -7.71011e-13 -2.44903e-13 -1.08784e-10 1.12415e-12 -4.89805e-13 -1.8788e-10 1.94014e-12 -8.48413e-13 -1.08779e-10 1.1279e-12 -5.02528e-13 7.73091 5.47488 0.417314 -1.08785e-10 1.12423e-12 -4.89805e-13 2.90554 0.965183 0.102902 -1.08777e-10 1.12482e-12 -4.92191e-13 10.2786 0.731801 0.0259123 -1.08788e-10 1.12472e-12 -4.86625e-13 2.22167 -0.733487 -0.20892 -1.10819e-14 1.15893e-16 -9.93923e-17 -2.36159e-13 2.24254e-15 -2.78299e-15 -4.03538e-12 -1.12373e-12 4.45278e-14 -4.60972e-11 1.63712e-12 -2.67167e-13 -1.08752e-10 1.11194e-12 -4.89805e-13 -1.87804e-10 1.92106e-12 -8.31715e-13 -1.08758e-10 1.11359e-12 -4.89805e-13 -7.73091 5.47488 -0.417314 -1.08753e-10 1.1127e-12 -4.86625e-13 -2.90554 0.965183 -0.102902 -1.0876e-10 1.1118e-12 -4.88215e-13 -10.2786 0.731801 -0.0259123 -1.08752e-10 1.1116e-12 -4.92986e-13 -2.22167 -0.733487 0.20892 -2.03217e-16 0.0 -3.88251e-19 1.95921 -7.26119 -0.192 0.0041225 7.58534 0.10708 -0.521 -0.330693 0.0522958 2.03217e-16 0.0 3.88251e-19 0.976411 -1.92613 0.000874292 0.00898911 -2.0786 0.0740801 0.488156 3.99809 -0.136779
-186.986 74.9851 -5.10173 101.572 81.2025 104.53 -4.9559 5.38984 0.0627563 0.774075 -1.24361 -0.201158 -0.232206 -3.81907 0.0261236 2.10037 -2.87162 0.420376 -0.0 0.0 0.0 -0.0 0.0 0.0 -2.97437e-14 7.38256e-14 7.09917e-15 21.9879 13.7831 -6.62681 -19.3871 -17.0833 15.1587 0.0429569 -4.61061 -0.640487 9.57243e-11 -9.35673e-11 5.7112e-10 1.56875e-10 -1.61012e-10 9.89137e-10 9.573e-11 -9.35651e-11 5.71111e-10 7.73091 5.47488 0.417314 9.57242e-11 -9.35665e-11 5.71121e-10 2.90554 0.965183 0.102902 9.57319e-11 -9.35678e-11 5.71119e-10 10.2786 0.731801 0.0259123 9.57211e-11 -9.35663e-11 5.71124e-10 2.22167 -0.733487 -0.20892 -2.98362e-14 7.38324e-14 6.87399e-15 -16.6731 15.0635 -1.09667 17.6186 -15.1413 -15.0435 -0.0528978 -5.16718 0.715957 -2.68977e-10 3.18424e-10 -1.03271e-09 -4.48879e-10 5.55875e-10 -1.78684e-09 -2.68982e-10 3.18426e-10 -1.0327e-09 -7.73091 5.47488 -0.417314 -2.68977e-10 3.18425e-10 -1.03271e-09 -2.90554 0.965183 -0.102902 -2.68984e-10 3.18424e-10 -1.03271e-09 -10.2786 0.731801 -0.0259123 -2.68976e-10 3.18425e-10 -1.03271e-09 -2.22167 -0.733487 0.20892 -2.03217e-16 0.0 -3.88251e-19 -4.88881 -9.82409 -2.03784 15.3013 25.2683 9.54374 -24.2243 -41.5723 -25.9352 2.03217e-16 0.0 3.88251e-19 -5.38657 -8.1725 -0.788309 0.0103096 10.8476 -0.064178 0.525053 -3.64074 0.76692
-184.111 75.011 -5.43493 99.2289 80.3397 101.899 -12.2369 11.0898 0.10317 0.99175 -2.55383 -0.506007 -0.474042 -7.84706 0.0451478 4.38139 -5.90982 0.852078 -0.0 0.0 0.0 -0.0 0.0 0.0 -5.145e-14 1.42067e-13 1.34894e-14 49.0327 27.746 -14.8398 -29.1746 -30.9398 35.3818 -0.0250663 -9.44665 -1.32649 3.08429e-10 -1.9204e-10 1.1766e-09 5.15337e-10 -3.30363e-10 2.03765e-09 3.08435e-10 -1.9204e-10 1.1766e-09 7.73091 5.47488 0.417314 3.0843e-10 -1.92039e-10 1.1766e-09 2.90554 0.965183 0.102902 3.08437e-10 -1.92042e-10 1.1766e-09 10.2786 0.731801 0.0259123 3.08427e-10 -1.92039e-10 1.17661e-09 2.22167 -0.733487 -0.20892 -5.15363e-14 1.42078e-13 1.31788e-14 -33.5761 31.0451 -2.37879 27.0536 -27.4499 -34.1164 0.0352529 -10.7192 1.50563 -4.5667e-10 6.42569e-10 -2.1189e-09 -7.56277e-10 1.12207e-09 -3.6664e-09 -4.56674e-10 6.42572e-10 -2.1189e-09 -7.73091 5.47488 -0.417314 -4.56668e-10 6.42571e-10 -2.1189e-09 -2.90554 0.965183 -0.102902 -4.56676e-10 6.42569e-10 -2.1189e-09 -10.2786 0.731801 -0.0259123 -4.56668e-10 6.42572e-10 -2.11891e-09 -2.22167 -0.733487 0.20892 -2.03217e-16 0.0 -3.88251e-19 -12.3421 -12.3091 -4.02516 22.7817 41.7031 23.9824 -104.402 -51.2354 -91.1271 2.03217e-16 0.0 3.88251e-19 -12.3394 -14.9246 -1.69662 0.0906823 24.5776 -0.219968 0.829551 -11.6517 1.77645
-181.267 75.2691 -5.77916 98.8962 79.0058 100.9 -18.7338 16.173 0.086077 1.21964 -3.74065 -0.78926 -0.68599 -11.4572 0.0797868 6.42873 -8.61299 1.27391 -0.0 0.0 0.0 -0.0 0.0 0.0 -6.72633e-14 2.2125e-13 2.11981e-14 77.5747 38.8143 -25.1062 -29.4572 -35.4444 57.5402 -0.188158 -13.8248 -1.9724 5.04742e-10 -2.8295e-10 1.71434e-09 8.46384e-10 -4.86916e-10 2.96911e-09 5.04747e-10 -2.82951e-10 1.71434e-09 7.73091 5.47488 0.417314 5.04742e-10 -2.82948e-10 1.71434e-09 2.90554 0.965183 0.102902 5.0475e-10 -2.82953e-10 1.71434e-09 10.2786 0.731801 0.0259123 5.0474e-10 -2.82948e-10 1.71435e-09 2.22167 -0.733487 -0.20892 -6.73448e-14 2.21266e-13 2.08208e-14 -47.6802 45.1098 -4.50384 28.4947 -31.998 -54.3022 0.241043 -15.4917 2.21983 -5.89427e-10 9.53047e-10 -3.09715e-09 -9.71027e-10 1.66378e-09 -5.35885e-09 -5.89431e-10 9.5305e-10 -3.09713e-09 -7.73091 5.47488 -0.417314 -5.89424e-10 9.53049e-10 -3.09714e-09 -2.90554 0.965183 -0.102902 -5.89433e-10 9.53047e-10 -3.09714e-09 -10.2786 0.731801 -0.0259123 -5.89424e-10 9.53051e-10 -3.09715e-09 -2.22167 -0.733487 0.20892 -2.03217e-16 0.0 -3.88251e-19 -19.0957 -14.8939 -5.83975 19.5376 52.4326 45.2492 -156.032 -23.144 -113.625 2.03217e-16 0.0 3.88251e-19 -18.6596 -20.6495 -2.50359 0.233396 36.6993 -0.42051 1.35199 -18.8996 2.71551
-178.751 75.432 -5.94155 103.071 78.0005 104.77 -23.2383 19.7142 -0.0841778 1.4985 -4.61927 -1.01716 -0.824762 -14.0227 0.153267 7.80902 -10.48 1.65997 -0.0 0.0 0.0 -0.0 0.0 0.0 -6.83444e-14 3.27787e-13 3.22031e-14 101.118 44.7689 -35.5135 -28.3101 -33.0011 72.0719 -0.371007 -17.0646 -2.47256 6.60073e-10 -3.54953e-10 2.08272e-09 1.10889e-09 -6.11474e-10 3.60794e-09 6.60078e-10 -3.54955e-10 2.08272e-09 7.73091 5.47488 0.417314 6.60074e-10 -3.5495e-10 2.08272e-09 2.90554 0.965183 0.102902 6.60082e-10 -3.54956e-10 2.08272e-09 10.2786 0.731801 0.0259123 6.60071e-10 -3.54951e-10 2.08273e-09 2.22167 -0.733487 -0.20892 -6.84241e-14 3.27805e-13 3.18055e-14 -55.8961 54.3841 -8.11671 27.9937 -30.5742 -68.1659 0.430425 -18.3256 2.66803 -5.84845e-10 1.22935e-09 -3.80551e-09 -9.54157e-10 2.14432e-09 -6.58352e-09 -5.84848e-10 1.22936e-09 -3.8055e-09 -7.73091 5.47488 -0.417314 -5.84841e-10 1.22936e-09 -3.80551e-09 -2.90554 0.965183 -0.102902 -5.8485e-10 1.22935e-09 -3.8055e-09 -10.2786 0.731801 -0.0259123 -5.84841e-10 1.22936e-09 -3.80551e-09 -2.22167 -0.733487 0.20892 -2.03217e-16 0.0 -3.88251e-19 -23.8067 -17.7695 -7.16136 11.7308 55.9805 67.1015 175.152 -4.13672 -105.975 2.03217e-16 0.0 3.88251e-19 -22.9394 -23.8244 -2.90414 0.39111 44.8006 -0.668803 1.85928 -24.2604 3.32926
-175.937 75.5765 -6.02572 105.22 77.7093 106.885 -24.9301 21.1275 -0.4139 1.85665 -5.08912 -1.14865 -0.897483 -15.1506 0.259449 8.23896 -11.1939 1.96718 -0.0 0.0 0.0 -0.0 0.0 0.0 -4.28367e-14 4.99387e-13 5.24516e-14 111.952 45.5633 -41.8434 -28.2307 -30.9426 76.8901 -0.479263 -18.7319 -2.73778 7.67407e-10 -4.1662e-10 2.25603e-09 1.2909e-09 -7.1933e-10 3.91003e-09 7.67412e-10 -4.16621e-10 2.25602e-09 7.73091 5.47488 0.417314 7.67408e-10 -4.16617e-10 2.25603e-09 2.90554 0.965183 0.102902 7.67415e-10 -4.16622e-10 2.25603e-09 10.2786 0.731801 0.0259123 7.67404e-10 -4.16617e-10 2.25603e-09 2.22167 -0.733487 -0.20892 -4.29185e-14 4.99404e-13 5.21107e-14 -57.2028 56.8766 -12.7775 28.0077 -29.2105 -73.4445 0.451724 -18.3471 2.67515 -3.59928e-10 1.48285e-09 -4.16977e-09 -5.6452e-10 2.58244e-09 -7.21135e-09 -3.5993e-10 1.48286e-09 -4.16975e-09 -7.73091 5.47488 -0.417314 -3.59924e-10 1.48286e-09 -4.16976e-09 -2.90554 0.965183 -0.102902 -3.59931e-10 1.48285e-09 -4.16976e-09 -10.2786 0.731801 -0.0259123 -3.59923e-10 1.48286e-09 -4.16977e-09 -2.22167 -0.733487 0.20892 -2.03217e-16 0.0 -3.88251e-19 -25.4594 -21.174 -7.70541 10.7806 56.2168 82.9572 162.059 -0.0275015 -89.6513 2.03217e-16 0.0 3.88251e-19 -24.0479 -23.4881 -2.49745 0.455169 47.3795 -0.908123 2.03248 -27.139 3.28792
-173.022 75.8953 -6.17734 108.459 77.5146 109.971 -24.6261 21.0184 -0.856042 2.27483 -5.26601 -1.21177 -0.924435 -15.2506 0.389154 7.97525 -11.0838 2.21576 -0.0 0.0 0.0 -0.0 0.0 0.0 1.37899e-15 7.16185e-13 7.90821e-14 112.03 43.6071 -44.0197 -28.2275 -31.2385 76.464 -0.505256 -19.2768 -2.82328 8.40011e-10 -4.70135e-10 2.28799e-09 1.41466e-09 -8.13917e-10 3.96812e-09 8.40014e-10 -4.70135e-10 2.28799e-09 7.73091 5.47488 0.417314 8.40012e-10 -4.70132e-10 2.28799e-09 2.90554 0.965183 0.102902 8.40017e-10 -4.70135e-10 2.28799e-09 10.2786 0.731801 0.0259123 8.40006e-10 -4.70131e-10 2.288e-09 2.22167 -0.733487 -0.20892 1.29218e-15 7.16199e-13 7.88523e-14 -55.1748 54.5324 -16.7925 28.0681 -29.8811 -73.8287 0.347421 -16.365 2.36561 2.10352e-11 1.71887e-09 -4.28663e-09 8.90704e-11 2.98821e-09 -7.41011e-09 2.10338e-11 1.71887e-09 -4.28662e-09 -7.73091 5.47488 -0.417314 2.10396e-11 1.71887e-09 -4.28663e-09 -2.90554 0.965183 -0.102902 2.10339e-11 1.71887e-09 -4.28662e-09 -10.2786 0.731801 -0.0259123 2.10396e-11 1.71888e-09 -4.28663e-09 -2.22167 -0.733487 0.20892 -2.03217e-16 0.0 -3.88251e-19 -24.8562 -24.9652 -7.69299 15.7441 56.0488 93.9226 162.948 -4.31203 -73.0207 2.03217e-16 0.0 3.88251e-19 -22.9554 -20.6354 -1.54419 0.388322 46.009 -1.09034 1.88376 -28.2406 2.73412
-170.372 75.9818 -6.04236 101.321 78.2437 103.627 -23.5627 20.249 -1.4323 2.72302 -5.28972 -1.27616 -0.879893 -14.8991 0.561652 7.39225 -10.6179 2.47279 -0.0 0.0 0.0 -0.0 0.0 0.0 4.35363e-14 9.08236e-13 1.0086e-13 107.698 40.9049 -44.5931 -28.2595 -32.4947 73.9502 -0.492306 -19.3463 -2.83062 8.83721e-10 -4.94576e-10 2.19618e-09 1.49041e-09 -8.58253e-10 3.8119e-09 8.83723e-10 -4.94575e-10 2.19617e-09 7.73091 5.47488 0.417314 8.83721e-10 -4.94572e-10 2.19617e-09 2.90554 0.965183 0.102902 8.83725e-10 -4.94574e-10 2.19618e-09 10.2786 0.731801 0.0259123 8.83714e-10 -4.94571e-10 2.19618e-09 2.22167 -0.733487 -0.20892 4.34426e-14 9.08248e-13 1.00744e-13 -52.8596 50.3926 -19.6062 28.1651 -31.5737 -72.3693 0.234585 -13.7488 1.96928 4.19521e-10 1.90785e-09 -4.25057e-09 7.70644e-10 3.31184e-09 -7.34435e-09 4.1952e-10 1.90785e-09 -4.25056e-09 -7.73091 5.47488 -0.417314 4.19525e-10 1.90785e-09 -4.25057e-09 -2.90554 0.965183 -0.102902 4.19521e-10 1.90784e-09 -4.25056e-09 -10.2786 0.731801 -0.0259123 4.19525e-10 1.90785e-09 -4.25057e-09 -2.22167 -0.733487 0.20892 -2.03217e-16 0.0 -3.88251e-19 -23.4121 -28.7631 -7.56404 19.1644 57.2258 100.707 170.667 -8.63021 -63.3153 2.03217e-16 0.0 3.88251e-19 -21.2886 -16.6936 -0.650994 0.245353 42.89 -1.22339 1.64769 -28.399 2.08627
-167.505 76.3759 -6.02276 104.695 78.5877 106.978 -22.9533 19.6804 -2.17261 3.16976 -5.29994 -1.41165 -0.733708 -14.6726 0.797406 6.87213 -10.2637 2.8069 -0.0 0.0 0.0 -0.0 0.0 0.0 6.28688e-14 1.0056e-12 1.06549e-13 105.431 39.0517 -45.9755 -28.3283 -33.2073 72.4069 -0.494875 -19.5867 -2.86642 9.04375e-10 -4.69017e-10 1.99815e-09 1.52839e-09 -8.15354e-10 3.47109e-09 9.04376e-10 -4.69016e-10 1.99813e-09 7.73091 5.47488 0.417314 9.04375e-10 -4.69014e-10 1.99813e-09 2.90554 0.965183 0.102902 9.04378e-10 -4.69014e-10 1.99814e-09 10.2786 0.731801 0.0259123 9.04367e-10 -4.69013e-10 1.99815e-09 2.22167 -0.733487 -0.20892 6.27672e-14 1.00561e-12 1.06499e-13 -51.8452 47.389 -21.7919 28.302 -32.912 -71.9275 0.176008 -11.8707 1.69285 6.97006e-10 2.02022e-09 -4.15606e-09 1.24423e-09 3.50356e-09 -7.17863e-09 6.97005e-10 2.02022e-09 -4.15605e-09 -7.73091 5.47488 -0.417314 6.9701e-10 2.02022e-09 -4.15606e-09 -2.90554 0.965183 -0.102902 6.97006e-10 2.02022e-09 -4.15606e-09 -10.2786 0.731801 -0.0259123 6.97009e-10 2.02022e-09 -4.15607e-09 -2.22167 -0.733487 0.20892 -2.03217e-16 0.0 -3.88251e-19 -22.6709 -32.1736 -7.79702 13.7641 60.7958 103.472 174.884 -8.43966 -66.7416 2.03217e-16 0.0 3.88251e-19 -20.4589 -13.1049 -0.337608 0.12383 40.2229 -1.3447 1.56426 -28.4537 1.77103
